<?xml version="1.0" encoding="utf-8"?>
<!-- Generator: Adobe Illustrator 16.0.0, SVG Export Plug-In . SVG Version: 6.00 Build 0)  -->
<!DOCTYPE svg PUBLIC "-//W3C//DTD SVG 1.1//EN" "http://www.w3.org/Graphics/SVG/1.1/DTD/svg11.dtd">
<svg version="1.1" id="Layer_1" xmlns="http://www.w3.org/2000/svg" xmlns:xlink="http://www.w3.org/1999/xlink" x="0px" y="0px"
	 width="1280px" height="606.06px" viewBox="0 369.293 1280 606.06" style="enable-background:new 0 369.293 1280 606.06;"
	 xml:space="preserve">
<g id="Layer_1_1_">
</g>
<g id="Layer_3">
</g>
<g>
	<g>
		<path style="fill:#FFFFFF;" d="M200.099,667.122c-20.927,17.239-43.127,25.607-67.943,25.607
			c-24.412,0-46.909-10.004-61.844-27.403c-15.001-17.509-21.088-41.184-17.146-66.548c8.11-52.701,57.392-95.495,109.757-95.495
			c22.08,0,42.365,8.648,57.151,24.241l3.352,3.537l32.256-30.124l-3.336-3.591c-19.346-20.688-51.83-33.544-84.784-33.544
			c-85.814,0-147.617,67.85-157.765,133.475c-5.564,35.727,3.767,70.732,25.619,96.256c21.691,25.313,53.572,38.72,92.116,38.72
			c32.001,0,68.559-13.341,95.373-34.71l3.7-2.963l-22.47-30.793L200.099,667.122z"/>
		<path style="fill:#FFFFFF;" d="M347.435,542.631c-16.303,0-32.538,5.711-44.456,15.324l13.942-90.198h-39.657l-40.272,260.54
			h39.629l15.605-100.842c4.639-30.045,22.053-47.285,47.619-47.285c9.84,0,17.213,2.773,21.878,8.244
			c7.683,8.996,7.361,23.582,5.725,34.253l-16.369,105.629h39.616l17.845-115.363c3.325-21.102-0.416-38.154-11.128-50.635
			C386.568,549.643,368.832,542.631,347.435,542.631z"/>
		<path style="fill:#FFFFFF;" d="M485.869,732.252c19.827,0,36.157-4.854,51.426-15.634l-1.796,11.679h37.699l18.822-121.635
			c2.48-16.331-0.993-30.059-10.282-40.891c-12.804-14.975-35.889-23.14-65.088-23.14c-21.076,0-42.66,4.398-65.893,13.527
			l-4.438,1.744l12.549,34.253l4.812-2.174c17.121-7.828,32.189-11.475,47.284-11.475c17.885,0,31.184,3.915,37.324,11.033
			c3.821,4.558,5.122,10.377,3.915,17.952l-1.38,8.834c-12.456-9.6-28.354-14.628-46.629-14.628
			c-54.12,0-83.83,32.767-88.508,63.201c-2.695,17.346,1.299,32.748,11.421,44.628C439.697,724.167,460.518,732.252,485.869,732.252
			z M544.092,666.251c-2.881,18.81-21.222,30.097-48.946,30.097c-16.168,0-27.873-3.713-33.905-10.698
			c-5.053-5.858-5.134-13.003-4.371-17.937c2.923-18.863,21.17-30.11,48.92-30.11c16.168,0,27.912,3.634,33.905,10.684
			C544.696,654.159,544.883,661.224,544.092,666.251z"/>
		<path style="fill:#FFFFFF;" d="M654.239,626.501c4.265-27.75,20.698-44.348,43.879-44.348c3.836,0,7.884,0.524,12.094,1.529
			l5.173,1.272l6.568-42.324h-5.736c-20.807,0-35.713,0.966-51.695,17.293l2.038-13.351h-39.628l-28.114,181.724h39.6
			L654.239,626.501z"/>
		<path style="fill:#FFFFFF;" d="M887.509,467.757l-15.242,98.67c-12.896-14.908-34.118-23.796-58.036-23.796
			c-51.627,0-99.997,41.358-107.974,92.251c-4.104,26.637,2.239,51.277,17.79,69.444c15.216,17.748,38.435,27.926,63.68,27.926
			c23.811,0,45.46-7.736,62.258-22.042l-2.774,18.087h39.602l40.341-260.54H887.509z M861.301,636.838
			c-4.921,31.893-34.682,57.875-66.376,57.875c-14.867,0-28.395-5.952-37.163-16.195c-9.25-10.725-12.707-25.136-10.135-41.801
			c4.305-27.779,30.741-56.547,67.556-56.547c14.035,0,26.611,5.697,35.433,15.939C859.96,607.022,863.754,621.407,861.301,636.838z
			"/>
		<path style="fill:#FFFFFF;" d="M1079.812,565.771c-12.804-14.975-35.931-23.14-65.103-23.14c-21.114,0-42.646,4.398-65.812,13.527
			l-4.519,1.744l12.456,34.253l4.867-2.174c17.188-7.828,32.215-11.475,47.311-11.475c17.938,0,31.197,3.915,37.337,11.033
			c3.754,4.558,5.107,10.377,3.928,17.952l-1.395,8.834c-12.428-9.6-28.342-14.628-46.573-14.628
			c-54.121,0-83.856,32.767-88.562,63.201c-2.748,17.346,1.26,32.748,11.477,44.628c12.549,14.64,33.38,22.725,58.693,22.725
			c19.881,0,36.195-4.854,51.385-15.634l-1.729,11.679h37.658l18.795-121.635C1092.586,590.331,1089.128,576.603,1079.812,565.771z
			 M993.3,696.348c-16.251,0-27.953-3.713-33.972-10.698c-5.014-5.858-5.161-13.003-4.385-17.937
			c2.883-18.863,21.183-30.11,48.921-30.11c16.181,0,27.871,3.634,33.902,10.684c5.029,5.872,5.205,12.937,4.399,17.964
			C1039.257,685.061,1020.972,696.348,993.3,696.348z"/>
		<path style="fill:#FFFFFF;" d="M1250.071,562.299c-10.846-12.657-28.581-19.668-49.897-19.668
			c-16.411,0-32.592,5.711-44.497,15.324l1.729-11.381h-39.603l-28.126,181.724h39.642l15.605-100.842
			c4.639-30.045,22.014-47.285,47.62-47.285c9.825,0,17.213,2.773,21.879,8.244c7.682,8.996,7.334,23.582,5.736,34.253
			l-16.368,105.629h39.643l17.87-115.363C1264.59,591.832,1260.769,574.78,1250.071,562.299z"/>
	</g>
	<g>
		<path style="fill:#FFFFFF;" d="M316.449,812.222h-16.835l-2.354,13.667h15.659l-2.082,12.039H295.27l-4.525,25.795h-13.758
			l11.133-64.081h30.502L316.449,812.222z"/>
		<path style="fill:#FFFFFF;" d="M353.739,829.237c0,2.416-0.271,5.07-0.813,7.966l-2.987,17.287
			c-0.121,0.666-0.242,1.45-0.362,2.354c-0.123,0.905-0.242,1.798-0.362,2.67c-0.122,0.876-0.226,1.706-0.317,2.49
			c-0.09,0.784-0.136,1.357-0.136,1.719h-11.042c0.059-0.724,0.166-1.688,0.317-2.896c0.15-1.208,0.317-2.201,0.498-2.987h-0.271
			c-1.027,2.112-2.415,3.817-4.164,5.113c-1.751,1.297-4.043,1.946-6.879,1.946c-1.267,0-2.52-0.241-3.756-0.724
			c-1.237-0.481-2.354-1.208-3.349-2.172c-0.996-0.965-1.795-2.187-2.398-3.665c-0.604-1.479-0.906-3.214-0.906-5.205
			c0-3.44,0.603-6.35,1.81-8.734c1.207-2.384,2.82-4.313,4.843-5.793c2.021-1.479,4.375-2.548,7.06-3.214
			c2.685-0.663,5.505-0.995,8.463-0.995h2.263c0.302-1.388,0.453-2.412,0.453-3.077c0-3.26-1.539-4.887-4.616-4.887
			c-1.69,0-3.304,0.377-4.842,1.129c-1.539,0.757-2.882,1.646-4.028,2.672l-5.069-8.419c2.112-1.99,4.585-3.588,7.422-4.797
			c2.836-1.206,5.702-1.809,8.599-1.809c5.127,0,8.838,1.253,11.132,3.755C352.593,821.47,353.739,824.893,353.739,829.237z
			 M337.719,842.995c-1.208,0-2.384,0.137-3.53,0.408c-1.146,0.271-2.158,0.724-3.032,1.358c-0.875,0.633-1.57,1.433-2.082,2.396
			c-0.514,0.967-0.769,2.114-0.769,3.441c0,1.447,0.346,2.534,1.04,3.258c0.693,0.723,1.553,1.086,2.58,1.086
			c1.086,0,2.066-0.285,2.941-0.861c0.875-0.571,1.63-1.324,2.263-2.262c0.634-0.935,1.161-1.975,1.584-3.122
			c0.421-1.146,0.753-2.292,0.996-3.438l0.453-2.265H337.719z"/>
		<path style="fill:#FFFFFF;" d="M390.578,828.423c-0.846-0.904-1.871-1.642-3.077-2.217c-1.208-0.572-2.566-0.86-4.073-0.86
			c-1.389,0-2.611,0.407-3.666,1.222c-1.056,0.815-1.584,2.007-1.584,3.576c0,1.266,0.389,2.248,1.169,2.94
			c0.779,0.694,2.128,1.524,4.048,2.49c1.259,0.664,2.458,1.388,3.598,2.172c1.139,0.785,2.144,1.69,3.013,2.715
			c0.87,1.026,1.574,2.203,2.114,3.53c0.541,1.328,0.81,2.806,0.81,4.436c0,3.077-0.558,5.689-1.674,7.828
			c-1.117,2.143-2.534,3.88-4.253,5.206c-1.72,1.327-3.637,2.275-5.748,2.852c-2.113,0.571-4.164,0.859-6.155,0.859
			c-3.078,0-6.005-0.544-8.78-1.63c-2.776-1.087-5.039-2.533-6.789-4.345l7.332-8.509c1.086,1.208,2.338,2.188,3.756,2.943
			c1.417,0.754,2.911,1.132,4.481,1.132c1.448,0,2.715-0.423,3.801-1.269c1.086-0.845,1.629-2.051,1.629-3.621
			c0-1.387-0.542-2.548-1.629-3.482c-1.086-0.937-2.595-1.888-4.525-2.852c-1.208-0.545-2.324-1.177-3.349-1.902
			c-1.026-0.724-1.932-1.567-2.715-2.533c-0.786-0.966-1.403-2.066-1.856-3.305c-0.452-1.236-0.678-2.67-0.678-4.299
			c0-2.896,0.562-5.385,1.686-7.467c1.125-2.082,2.568-3.77,4.332-5.069c1.763-1.297,3.72-2.246,5.871-2.852
			c2.151-0.603,4.252-0.903,6.304-0.903c2.775,0,5.354,0.422,7.739,1.266c2.382,0.846,4.299,1.962,5.747,3.35L390.578,828.423z"/>
		<path style="fill:#FFFFFF;" d="M445.518,826.614c0,1.146-0.076,2.443-0.226,3.892c-0.151,1.447-0.378,2.896-0.679,4.345
			l-4.979,28.872h-13.215l5.069-28.872c0.12-0.543,0.211-1.102,0.271-1.675c0.06-0.574,0.091-1.132,0.091-1.675
			c0-1.267-0.258-2.354-0.77-3.259c-0.513-0.904-1.493-1.358-2.941-1.358c-1.811,0-3.364,0.86-4.662,2.582
			c-1.298,1.719-2.188,3.936-2.669,6.65l-4.798,27.606h-13.214l11.947-68.427h13.125l-4.889,27.788h0.182
			c1.207-2.111,2.79-3.951,4.751-5.521c1.96-1.569,4.391-2.354,7.286-2.354c1.871,0,3.47,0.348,4.797,1.04
			c1.327,0.694,2.399,1.584,3.214,2.67c0.814,1.086,1.403,2.308,1.765,3.667C445.337,823.943,445.518,825.288,445.518,826.614z"/>
		<path style="fill:#FFFFFF;" d="M468.053,863.723h-13.214l8.146-47.065H476.2L468.053,863.723z M479.187,802.356
			c0,1.207-0.212,2.339-0.634,3.394c-0.423,1.057-0.995,1.978-1.719,2.762c-0.725,0.784-1.584,1.401-2.58,1.854
			c-0.996,0.452-2.067,0.679-3.212,0.679c-2.113,0-3.743-0.679-4.888-2.035c-1.147-1.359-1.72-2.912-1.72-4.662
			c0-1.146,0.195-2.248,0.588-3.305c0.392-1.054,0.95-1.99,1.674-2.806c0.725-0.814,1.569-1.461,2.534-1.945
			c0.965-0.482,2.021-0.725,3.168-0.725c2.172,0,3.847,0.649,5.023,1.946C478.598,798.812,479.187,800.425,479.187,802.356z"/>
		<path style="fill:#FFFFFF;" d="M524.08,833.492c0,4.104-0.514,8.056-1.539,11.856c-1.027,3.802-2.505,7.167-4.435,10.093
			c-1.932,2.927-4.345,5.28-7.241,7.061c-2.896,1.778-6.186,2.67-9.866,2.67c-5.25,0-9.323-1.675-12.22-5.023
			c-2.896-3.35-4.344-7.799-4.344-13.352c0-4.041,0.528-7.964,1.584-11.766c1.055-3.802,2.58-7.181,4.571-10.139
			c1.992-2.954,4.436-5.308,7.332-7.059c2.896-1.75,6.155-2.624,9.775-2.624c5.189,0,9.216,1.674,12.083,5.023
			C522.646,823.582,524.08,828.002,524.08,833.492z M511.318,834.578c0-2.412-0.377-4.358-1.131-5.839
			c-0.755-1.478-1.978-2.217-3.666-2.217c-1.509,0-2.837,0.666-3.983,1.991c-1.146,1.329-2.097,2.974-2.851,4.933
			c-0.755,1.962-1.327,4.074-1.719,6.337c-0.394,2.263-0.588,4.3-0.588,6.109c0,2.354,0.346,4.254,1.041,5.702
			c0.694,1.447,1.885,2.172,3.576,2.172c1.507,0,2.851-0.647,4.028-1.946c1.177-1.297,2.156-2.909,2.941-4.842
			c0.784-1.93,1.373-4.012,1.765-6.245C511.122,838.501,511.318,836.448,511.318,834.578z"/>
		<path style="fill:#FFFFFF;" d="M574.856,826.614c0,1.146-0.076,2.443-0.225,3.892c-0.152,1.447-0.378,2.896-0.68,4.345
			l-4.978,28.872h-13.215l5.069-28.872c0.12-0.543,0.21-1.102,0.271-1.675c0.06-0.574,0.091-1.132,0.091-1.675
			c0-1.267-0.258-2.354-0.77-3.259c-0.514-0.904-1.494-1.358-2.941-1.358c-1.811,0-3.365,0.86-4.662,2.582
			c-1.298,1.719-2.188,3.936-2.67,6.65l-4.797,27.606h-13.214l6.245-35.57c0.121-0.725,0.272-1.644,0.453-2.762
			c0.182-1.114,0.347-2.23,0.498-3.349c0.15-1.114,0.302-2.157,0.453-3.122c0.15-0.964,0.256-1.721,0.317-2.263h12.491
			c-0.122,0.846-0.257,1.917-0.408,3.212c-0.151,1.299-0.316,2.521-0.498,3.666h0.181c1.206-2.353,2.865-4.329,4.978-5.928
			c2.112-1.599,4.616-2.397,7.513-2.397c1.869,0,3.485,0.348,4.843,1.04c1.357,0.694,2.443,1.584,3.258,2.67
			c0.814,1.086,1.417,2.308,1.81,3.667C574.66,823.943,574.856,825.288,574.856,826.614z"/>
		<path style="fill:#FFFFFF;" d="M652.604,814.304c0,2.172-0.287,4.134-0.859,5.883c-0.576,1.752-1.357,3.29-2.354,4.617
			c-0.995,1.327-2.143,2.442-3.438,3.349c-1.298,0.905-2.703,1.599-4.209,2.082l0.09,0.18c1.086,0.303,2.112,0.786,3.077,1.449
			c0.965,0.665,1.84,1.509,2.625,2.534c0.782,1.026,1.403,2.217,1.855,3.574c0.451,1.358,0.681,2.884,0.681,4.572
			c0,3.742-0.649,6.939-1.949,9.595c-1.298,2.655-3.002,4.842-5.113,6.562c-2.112,1.719-4.478,2.987-7.104,3.802
			c-2.625,0.814-5.295,1.221-8.01,1.221h-21.18l11.133-64.081h18.645c1.871,0,3.757,0.257,5.655,0.768
			c1.901,0.514,3.622,1.345,5.161,2.49c1.537,1.147,2.805,2.656,3.801,4.525C652.105,809.296,652.604,811.588,652.604,814.304z
			 M636.765,842.544c0-2.413-0.71-4.119-2.127-5.114c-1.418-0.996-2.972-1.494-4.662-1.494h-5.521l-2.806,16.111h5.612
			c2.774,0,5.053-0.798,6.834-2.398C635.874,848.05,636.765,845.681,636.765,842.544z M639.842,817.11
			c0-1.932-0.603-3.394-1.809-4.391c-1.209-0.995-2.686-1.493-4.436-1.493h-4.798l-2.534,14.481h5.159
			c0.964,0,1.96-0.165,2.986-0.498c1.026-0.33,1.931-0.844,2.716-1.538c0.783-0.692,1.432-1.583,1.945-2.67
			C639.585,819.916,639.842,818.619,639.842,817.11z"/>
		<path style="fill:#FFFFFF;" d="M700.121,833.492c0,4.104-0.513,8.056-1.538,11.856c-1.027,3.802-2.504,7.167-4.436,10.093
			c-1.931,2.927-4.345,5.28-7.24,7.061c-2.896,1.778-6.187,2.67-9.867,2.67c-5.248,0-9.323-1.675-12.219-5.023
			c-2.896-3.35-4.345-7.799-4.345-13.352c0-4.041,0.527-7.964,1.585-11.766c1.054-3.802,2.578-7.181,4.57-10.139
			c1.991-2.954,4.435-5.308,7.332-7.059c2.896-1.75,6.153-2.624,9.774-2.624c5.188,0,9.217,1.674,12.083,5.023
			C698.687,823.582,700.121,828.002,700.121,833.492z M687.359,834.578c0-2.412-0.379-4.358-1.132-5.839
			c-0.756-1.478-1.978-2.217-3.665-2.217c-1.51,0-2.838,0.666-3.983,1.991c-1.147,1.329-2.097,2.974-2.851,4.933
			c-0.755,1.962-1.329,4.074-1.72,6.337c-0.393,2.263-0.589,4.3-0.589,6.109c0,2.354,0.348,4.254,1.042,5.702
			c0.692,1.447,1.885,2.172,3.575,2.172c1.507,0,2.851-0.647,4.026-1.946c1.177-1.297,2.158-2.909,2.943-4.842
			c0.781-1.93,1.371-4.012,1.764-6.245C687.162,838.501,687.359,836.448,687.359,834.578z"/>
		<path style="fill:#FFFFFF;" d="M746.552,852.228c-0.119,0.785-0.27,1.721-0.45,2.806c-0.183,1.087-0.364,2.203-0.545,3.35
			c-0.182,1.146-0.348,2.203-0.498,3.168c-0.15,0.967-0.256,1.69-0.316,2.172h-12.4c0.121-0.844,0.257-1.9,0.408-3.167
			c0.15-1.267,0.316-2.504,0.498-3.712h-0.271c-1.208,2.414-2.852,4.405-4.933,5.975c-2.083,1.568-4.571,2.354-7.468,2.354
			c-1.932,0-3.562-0.332-4.888-0.996c-1.328-0.663-2.398-1.538-3.213-2.625c-0.815-1.085-1.419-2.309-1.811-3.666
			c-0.393-1.357-0.588-2.729-0.588-4.118c0-1.146,0.074-2.428,0.227-3.847c0.149-1.417,0.375-2.851,0.678-4.299l4.979-28.964h13.216
			l-5.07,28.873c-0.121,0.604-0.212,1.193-0.271,1.765c-0.061,0.574-0.09,1.103-0.09,1.584c0,1.268,0.256,2.353,0.77,3.26
			c0.512,0.903,1.494,1.356,2.94,1.356c1.811,0,3.363-0.859,4.662-2.578c1.298-1.722,2.186-3.938,2.67-6.654l4.798-27.605h13.213
			L746.552,852.228z"/>
		<path style="fill:#FFFFFF;" d="M787.646,827.246h-7.604l-3.531,19.279c-0.12,0.483-0.211,1.027-0.271,1.63
			c-0.061,0.604-0.091,1.086-0.091,1.448c0,2.656,1.297,3.983,3.893,3.983c0.481,0,1.026-0.061,1.629-0.183
			c0.603-0.119,1.116-0.24,1.538-0.362l-1.719,10.047c-0.846,0.424-1.917,0.771-3.213,1.041c-1.299,0.272-2.521,0.408-3.667,0.408
			c-3.922,0-6.864-0.936-8.825-2.806c-1.961-1.869-2.94-4.466-2.94-7.784c0-0.544,0.029-1.177,0.09-1.901
			c0.061-0.724,0.149-1.447,0.272-2.173l3.982-22.628h-6.245l1.9-10.589h6.155l1.991-11.494h12.763l-2.083,11.494h7.966
			L787.646,827.246z"/>
		<path style="fill:#FFFFFF;" d="M805.566,863.723h-13.216l8.147-47.065h13.215L805.566,863.723z M816.7,802.356
			c0,1.207-0.214,2.339-0.634,3.394c-0.424,1.057-0.996,1.978-1.722,2.762c-0.723,0.784-1.583,1.401-2.578,1.854
			c-0.996,0.452-2.067,0.679-3.214,0.679c-2.112,0-3.741-0.679-4.887-2.035c-1.147-1.359-1.722-2.912-1.722-4.662
			c0-1.146,0.197-2.248,0.59-3.305c0.392-1.054,0.95-1.99,1.674-2.806c0.724-0.814,1.568-1.461,2.535-1.945
			c0.964-0.482,2.02-0.725,3.168-0.725c2.172,0,3.847,0.649,5.022,1.946C816.11,798.812,816.7,800.425,816.7,802.356z"/>
		<path style="fill:#FFFFFF;" d="M853.265,885.446h-12.943l4.707-27.153h-0.181c-0.906,1.871-2.188,3.484-3.847,4.841
			c-1.661,1.358-3.847,2.038-6.562,2.038c-4.164,0-7.287-1.554-9.369-4.661c-2.083-3.108-3.123-7.137-3.123-12.084
			c0-3.68,0.438-7.481,1.313-11.404c0.873-3.923,2.156-7.498,3.847-10.726c1.688-3.229,3.786-5.883,6.29-7.965
			c2.503-2.082,5.354-3.122,8.554-3.122c2.896,0,5.083,0.709,6.562,2.125c1.478,1.419,2.398,3.185,2.76,5.296h0.181l1.088-5.974
			h12.67L853.265,885.446z M849.191,834.578c0-2.412-0.361-4.358-1.086-5.839c-0.724-1.478-1.961-2.217-3.711-2.217
			c-1.509,0-2.837,0.666-3.983,1.991c-1.146,1.329-2.111,2.974-2.896,4.933c-0.785,1.962-1.373,4.074-1.765,6.337
			c-0.394,2.263-0.588,4.33-0.588,6.2c0,2.294,0.361,4.163,1.086,5.611c0.724,1.447,1.96,2.172,3.711,2.172
			c1.508,0,2.836-0.647,3.981-1.946c1.146-1.297,2.111-2.909,2.898-4.842c0.781-1.93,1.371-4.012,1.764-6.245
			C848.996,838.501,849.191,836.448,849.191,834.578z"/>
		<path style="fill:#FFFFFF;" d="M911.01,852.228c-0.12,0.785-0.271,1.721-0.45,2.806c-0.184,1.087-0.363,2.203-0.545,3.35
			c-0.181,1.146-0.348,2.203-0.498,3.168c-0.151,0.967-0.257,1.69-0.316,2.172h-12.4c0.12-0.844,0.257-1.9,0.408-3.167
			c0.15-1.267,0.317-2.504,0.498-3.712h-0.272c-1.207,2.414-2.852,4.405-4.932,5.975c-2.083,1.568-4.57,2.354-7.469,2.354
			c-1.931,0-3.561-0.332-4.887-0.996c-1.329-0.663-2.398-1.538-3.213-2.625c-0.815-1.085-1.419-2.309-1.811-3.666
			c-0.393-1.357-0.588-2.729-0.588-4.118c0-1.146,0.074-2.428,0.226-3.847c0.149-1.417,0.376-2.851,0.679-4.299l4.979-28.964h13.216
			l-5.07,28.873c-0.121,0.604-0.212,1.193-0.271,1.765c-0.062,0.574-0.091,1.103-0.091,1.584c0,1.268,0.256,2.353,0.77,3.26
			c0.513,0.903,1.493,1.356,2.94,1.356c1.811,0,3.363-0.859,4.662-2.578c1.298-1.722,2.186-3.938,2.67-6.654l4.798-27.605h13.213
			L911.01,852.228z"/>
		<path style="fill:#FFFFFF;" d="M963.507,831.772c0,1.209-0.091,2.776-0.271,4.706c-0.182,1.933-0.543,4.226-1.085,6.881h-23.534
			c-0.182,1.206-0.271,2.203-0.271,2.985c0,2.113,0.451,3.847,1.357,5.204c0.904,1.357,2.263,2.038,4.072,2.038
			c1.63,0,3.001-0.529,4.12-1.585c1.114-1.055,2.064-2.247,2.851-3.575l9.052,5.884c-1.63,3.018-3.925,5.581-6.879,7.693
			c-2.959,2.11-6.488,3.168-10.59,3.168c-5.312,0-9.415-1.644-12.311-4.934c-2.896-3.287-4.346-7.859-4.346-13.713
			c0-4.223,0.574-8.236,1.721-12.036c1.146-3.803,2.73-7.137,4.753-10.002c2.02-2.866,4.418-5.129,7.195-6.79
			c2.773-1.657,5.761-2.487,8.959-2.487c2.716,0,5.038,0.422,6.971,1.266c1.93,0.846,3.499,2.007,4.706,3.485
			c1.207,1.48,2.096,3.229,2.671,5.249C963.22,827.232,963.507,829.419,963.507,831.772z M952.012,831.591
			c0-1.93-0.348-3.452-1.04-4.57c-0.695-1.116-1.766-1.675-3.214-1.675c-1.027,0-1.962,0.304-2.807,0.905
			c-0.846,0.604-1.583,1.374-2.217,2.308c-0.634,0.938-1.177,1.979-1.63,3.124c-0.451,1.146-0.769,2.262-0.949,3.349h11.494
			c0.12-0.362,0.21-0.906,0.272-1.63C951.98,832.678,952.012,832.075,952.012,831.591z"/>
	</g>
</g>
</svg>
