<?xml version="1.0" encoding="utf-8"?>
<!-- Generator: Adobe Illustrator 16.0.0, SVG Export Plug-In . SVG Version: 6.00 Build 0)  -->
<!DOCTYPE svg PUBLIC "-//W3C//DTD SVG 1.1//EN" "http://www.w3.org/Graphics/SVG/1.1/DTD/svg11.dtd">
<svg version="1.1" id="Layer_1" xmlns="http://www.w3.org/2000/svg" xmlns:xlink="http://www.w3.org/1999/xlink" x="0px" y="0px"
	 width="1280px" height="606.059px" viewBox="0 0 1280 606.059" enable-background="new 0 0 1280 606.059" xml:space="preserve">
<g id="Layer_1_1_">
</g>
<g id="Layer_3">
</g>
<g>
	<g>
		<path fill="#FFFFFF" d="M200.099,324.307c-20.927,17.24-43.127,25.607-67.943,25.607c-24.412,0-46.909-10.004-61.844-27.402
			c-15.001-17.51-21.088-41.186-17.146-66.549c8.11-52.701,57.392-95.494,109.757-95.494c22.08,0,42.365,8.646,57.151,24.24
			l3.352,3.537l32.256-30.123l-3.336-3.592c-19.346-20.688-51.83-33.545-84.784-33.545c-85.814,0-147.617,67.852-157.765,133.477
			c-5.564,35.727,3.767,70.73,25.619,96.256c21.691,25.312,53.572,38.719,92.116,38.719c32.001,0,68.559-13.34,95.373-34.709
			l3.7-2.963l-22.47-30.793L200.099,324.307z"/>
		<path fill="#FFFFFF" d="M347.435,199.817c-16.303,0-32.537,5.711-44.456,15.324l13.942-90.199h-39.657l-40.272,260.541h39.629
			l15.605-100.842c4.639-30.045,22.053-47.285,47.619-47.285c9.84,0,17.213,2.773,21.878,8.244
			c7.684,8.996,7.361,23.582,5.726,34.252l-16.369,105.629h39.616l17.845-115.363c3.325-21.102-0.416-38.152-11.128-50.635
			C386.568,206.829,368.832,199.817,347.435,199.817z"/>
		<path fill="#FFFFFF" d="M485.869,389.438c19.827,0,36.157-4.854,51.426-15.635l-1.796,11.68h37.699l18.821-121.635
			c2.48-16.332-0.992-30.059-10.281-40.891c-12.805-14.977-35.89-23.141-65.088-23.141c-21.076,0-42.66,4.398-65.894,13.527
			l-4.438,1.744l12.549,34.252l4.812-2.174c17.121-7.828,32.189-11.475,47.284-11.475c17.885,0,31.185,3.914,37.324,11.033
			c3.821,4.557,5.122,10.377,3.915,17.951l-1.38,8.834c-12.456-9.6-28.354-14.627-46.629-14.627
			c-54.12,0-83.83,32.766-88.509,63.201c-2.694,17.346,1.3,32.748,11.422,44.627C439.697,381.352,460.518,389.438,485.869,389.438z
			 M544.092,323.436c-2.881,18.811-21.222,30.098-48.945,30.098c-16.169,0-27.873-3.713-33.905-10.697
			c-5.054-5.859-5.134-13.004-4.371-17.938c2.923-18.863,21.17-30.111,48.92-30.111c16.168,0,27.912,3.635,33.905,10.686
			C544.696,311.344,544.883,318.409,544.092,323.436z"/>
		<path fill="#FFFFFF" d="M654.239,283.686c4.265-27.75,20.698-44.348,43.879-44.348c3.836,0,7.884,0.523,12.094,1.529l5.173,1.271
			l6.568-42.324h-5.736c-20.807,0-35.713,0.967-51.695,17.293l2.038-13.35h-39.628l-28.113,181.723h39.6L654.239,283.686z"/>
		<path fill="#FFFFFF" d="M887.509,124.942l-15.242,98.67c-12.896-14.908-34.117-23.795-58.036-23.795
			c-51.627,0-99.996,41.357-107.974,92.25c-4.104,26.637,2.239,51.277,17.79,69.445c15.216,17.748,38.436,27.926,63.68,27.926
			c23.812,0,45.46-7.736,62.259-22.043l-2.774,18.088h39.602l40.342-260.541H887.509L887.509,124.942z M861.301,294.024
			c-4.921,31.893-34.682,57.875-66.376,57.875c-14.867,0-28.395-5.953-37.163-16.195c-9.25-10.725-12.707-25.137-10.135-41.801
			c4.305-27.779,30.741-56.547,67.556-56.547c14.035,0,26.611,5.697,35.434,15.939C859.96,264.208,863.754,278.592,861.301,294.024z
			"/>
		<path fill="#FFFFFF" d="M1079.812,222.958c-12.805-14.977-35.932-23.141-65.104-23.141c-21.114,0-42.646,4.398-65.812,13.527
			l-4.519,1.744l12.456,34.252l4.867-2.174c17.188-7.828,32.215-11.475,47.311-11.475c17.938,0,31.197,3.914,37.337,11.033
			c3.755,4.557,5.107,10.377,3.929,17.951l-1.396,8.834c-12.428-9.6-28.342-14.627-46.573-14.627
			c-54.121,0-83.855,32.766-88.562,63.201c-2.748,17.346,1.26,32.748,11.477,44.627c12.55,14.641,33.38,22.725,58.693,22.725
			c19.881,0,36.195-4.854,51.385-15.633l-1.729,11.678h37.657l18.795-121.635C1092.586,247.516,1089.128,233.79,1079.812,222.958z
			 M993.3,353.534c-16.251,0-27.953-3.713-33.972-10.697c-5.014-5.859-5.161-13.004-4.385-17.938
			c2.883-18.863,21.183-30.109,48.921-30.109c16.181,0,27.871,3.633,33.901,10.684c5.029,5.871,5.205,12.936,4.399,17.963
			C1039.257,342.247,1020.972,353.534,993.3,353.534z"/>
		<path fill="#FFFFFF" d="M1250.071,219.485c-10.847-12.658-28.581-19.668-49.897-19.668c-16.411,0-32.592,5.711-44.497,15.324
			l1.729-11.381h-39.604l-28.126,181.723h39.643l15.604-100.842c4.64-30.045,22.015-47.285,47.62-47.285
			c9.825,0,17.213,2.773,21.879,8.244c7.683,8.996,7.334,23.582,5.736,34.254l-16.368,105.629h39.643l17.87-115.363
			C1264.59,249.018,1260.77,231.965,1250.071,219.485z"/>
	</g>
	<g>
		<path fill="#FFFFFF" d="M316.449,469.407h-16.835l-2.354,13.668h15.659l-2.082,12.039H295.27l-4.525,25.795h-13.758l11.133-64.082
			h30.502L316.449,469.407z"/>
		<path fill="#FFFFFF" d="M353.739,486.422c0,2.416-0.271,5.07-0.813,7.967l-2.986,17.287c-0.121,0.666-0.242,1.449-0.362,2.354
			c-0.123,0.904-0.242,1.797-0.362,2.67c-0.122,0.875-0.226,1.705-0.316,2.49c-0.091,0.783-0.137,1.357-0.137,1.719H337.72
			c0.06-0.725,0.166-1.688,0.317-2.896c0.15-1.207,0.317-2.201,0.498-2.986h-0.271c-1.026,2.111-2.415,3.816-4.164,5.113
			c-1.751,1.297-4.043,1.945-6.879,1.945c-1.267,0-2.52-0.24-3.756-0.725c-1.236-0.48-2.354-1.207-3.349-2.172
			c-0.996-0.965-1.795-2.186-2.398-3.664s-0.905-3.215-0.905-5.205c0-3.439,0.603-6.35,1.81-8.734s2.82-4.312,4.843-5.793
			c2.021-1.479,4.375-2.549,7.061-3.215c2.685-0.662,5.505-0.994,8.463-0.994h2.263c0.302-1.389,0.453-2.412,0.453-3.076
			c0-3.262-1.539-4.889-4.616-4.889c-1.689,0-3.304,0.377-4.842,1.129c-1.539,0.758-2.882,1.646-4.028,2.674l-5.068-8.42
			c2.111-1.99,4.585-3.588,7.422-4.797c2.836-1.207,5.702-1.809,8.599-1.809c5.127,0,8.838,1.252,11.132,3.754
			C352.593,478.655,353.739,482.079,353.739,486.422z M337.719,500.18c-1.208,0-2.384,0.137-3.529,0.408
			c-1.146,0.271-2.158,0.725-3.032,1.357c-0.875,0.633-1.57,1.434-2.082,2.396c-0.515,0.967-0.77,2.115-0.77,3.441
			c0,1.447,0.347,2.533,1.04,3.258c0.693,0.723,1.554,1.086,2.58,1.086c1.086,0,2.066-0.285,2.941-0.861
			c0.875-0.57,1.63-1.324,2.263-2.262c0.634-0.936,1.161-1.975,1.584-3.121c0.421-1.146,0.753-2.293,0.996-3.439l0.453-2.264
			H337.719L337.719,500.18z"/>
		<path fill="#FFFFFF" d="M390.578,485.608c-0.846-0.904-1.871-1.641-3.077-2.217c-1.208-0.572-2.566-0.859-4.073-0.859
			c-1.389,0-2.61,0.406-3.666,1.223c-1.056,0.814-1.584,2.006-1.584,3.574c0,1.268,0.39,2.248,1.169,2.941s2.128,1.523,4.048,2.49
			c1.26,0.664,2.459,1.387,3.599,2.172c1.139,0.785,2.144,1.689,3.013,2.715c0.87,1.025,1.574,2.203,2.114,3.529
			c0.541,1.328,0.81,2.807,0.81,4.436c0,3.078-0.558,5.689-1.674,7.828c-1.117,2.145-2.534,3.881-4.253,5.207
			c-1.72,1.326-3.637,2.275-5.748,2.852c-2.113,0.57-4.164,0.859-6.155,0.859c-3.077,0-6.005-0.545-8.779-1.631
			c-2.776-1.086-5.039-2.533-6.789-4.344l7.332-8.51c1.086,1.209,2.338,2.188,3.756,2.943c1.417,0.754,2.911,1.131,4.48,1.131
			c1.448,0,2.716-0.422,3.802-1.268s1.629-2.051,1.629-3.621c0-1.387-0.542-2.549-1.629-3.482c-1.086-0.938-2.596-1.889-4.525-2.852
			c-1.208-0.545-2.324-1.178-3.349-1.902c-1.026-0.725-1.933-1.566-2.715-2.533c-0.786-0.967-1.403-2.066-1.856-3.305
			c-0.452-1.236-0.678-2.67-0.678-4.299c0-2.896,0.562-5.385,1.686-7.467c1.125-2.082,2.568-3.771,4.332-5.07
			c1.763-1.297,3.72-2.246,5.871-2.852c2.151-0.604,4.252-0.902,6.304-0.902c2.775,0,5.354,0.422,7.739,1.266
			c2.382,0.846,4.299,1.963,5.747,3.35L390.578,485.608z"/>
		<path fill="#FFFFFF" d="M445.518,483.799c0,1.146-0.075,2.443-0.226,3.893c-0.151,1.447-0.378,2.896-0.679,4.344l-4.979,28.873
			h-13.215l5.069-28.873c0.12-0.543,0.211-1.102,0.271-1.674c0.061-0.574,0.091-1.133,0.091-1.676c0-1.266-0.258-2.354-0.77-3.258
			c-0.513-0.904-1.493-1.359-2.941-1.359c-1.811,0-3.363,0.861-4.662,2.582c-1.298,1.721-2.188,3.938-2.669,6.65l-4.798,27.605
			h-13.214l11.947-68.426h13.125l-4.89,27.787h0.183c1.207-2.111,2.79-3.951,4.751-5.52c1.96-1.57,4.391-2.355,7.286-2.355
			c1.871,0,3.47,0.35,4.797,1.041c1.327,0.693,2.398,1.584,3.214,2.67c0.814,1.086,1.403,2.309,1.765,3.666
			C445.337,481.129,445.518,482.473,445.518,483.799z"/>
		<path fill="#FFFFFF" d="M468.053,520.909h-13.214l8.146-47.064H476.2L468.053,520.909z M479.188,459.542
			c0,1.207-0.213,2.34-0.635,3.395c-0.423,1.057-0.995,1.979-1.719,2.762c-0.725,0.783-1.584,1.4-2.58,1.854s-2.066,0.68-3.212,0.68
			c-2.113,0-3.743-0.68-4.888-2.035c-1.147-1.359-1.721-2.912-1.721-4.662c0-1.146,0.195-2.248,0.589-3.305
			c0.392-1.055,0.949-1.99,1.674-2.807c0.725-0.814,1.568-1.461,2.534-1.945c0.965-0.48,2.021-0.725,3.168-0.725
			c2.172,0,3.847,0.648,5.022,1.945C478.598,455.999,479.188,457.61,479.188,459.542z"/>
		<path fill="#FFFFFF" d="M524.08,490.678c0,4.104-0.514,8.055-1.539,11.855c-1.027,3.803-2.505,7.166-4.435,10.094
			c-1.933,2.926-4.346,5.279-7.241,7.061c-2.896,1.777-6.187,2.67-9.866,2.67c-5.25,0-9.323-1.676-12.22-5.023
			c-2.896-3.35-4.345-7.799-4.345-13.352c0-4.041,0.528-7.965,1.585-11.766c1.055-3.803,2.579-7.182,4.57-10.141
			c1.992-2.953,4.437-5.307,7.332-7.059c2.896-1.75,6.155-2.623,9.775-2.623c5.188,0,9.216,1.674,12.083,5.023
			C522.646,480.768,524.08,485.188,524.08,490.678z M511.318,491.764c0-2.412-0.377-4.359-1.132-5.84
			c-0.755-1.479-1.978-2.217-3.665-2.217c-1.51,0-2.838,0.666-3.983,1.99c-1.146,1.33-2.097,2.975-2.852,4.934
			c-0.755,1.963-1.326,4.074-1.719,6.338c-0.394,2.262-0.588,4.299-0.588,6.107c0,2.355,0.346,4.256,1.041,5.703
			c0.694,1.447,1.885,2.172,3.576,2.172c1.507,0,2.851-0.646,4.028-1.945c1.177-1.297,2.155-2.91,2.94-4.842
			c0.784-1.932,1.373-4.014,1.766-6.246C511.122,495.686,511.318,493.633,511.318,491.764z"/>
		<path fill="#FFFFFF" d="M574.856,483.799c0,1.146-0.076,2.443-0.226,3.893c-0.151,1.447-0.378,2.896-0.68,4.344l-4.979,28.873
			h-13.215l5.069-28.873c0.12-0.543,0.21-1.102,0.271-1.674c0.061-0.574,0.092-1.133,0.092-1.676c0-1.266-0.259-2.354-0.771-3.258
			c-0.514-0.904-1.494-1.359-2.941-1.359c-1.811,0-3.364,0.861-4.661,2.582c-1.299,1.721-2.188,3.938-2.67,6.65l-4.798,27.605
			h-13.214l6.245-35.568c0.121-0.727,0.272-1.645,0.453-2.764c0.182-1.113,0.347-2.229,0.498-3.348
			c0.15-1.115,0.302-2.158,0.453-3.123c0.149-0.963,0.256-1.721,0.316-2.262h12.491c-0.122,0.846-0.257,1.916-0.408,3.211
			c-0.15,1.299-0.315,2.521-0.498,3.666h0.182c1.206-2.354,2.865-4.328,4.978-5.928s4.616-2.396,7.514-2.396
			c1.869,0,3.484,0.348,4.843,1.039c1.357,0.695,2.443,1.584,3.258,2.67s1.417,2.309,1.811,3.668
			C574.66,481.129,574.856,482.473,574.856,483.799z"/>
		<path fill="#FFFFFF" d="M652.604,471.489c0,2.172-0.286,4.135-0.858,5.885c-0.576,1.752-1.357,3.289-2.354,4.615
			c-0.994,1.328-2.143,2.443-3.438,3.35c-1.298,0.904-2.703,1.6-4.209,2.082l0.09,0.18c1.086,0.303,2.112,0.787,3.077,1.449
			c0.965,0.666,1.84,1.51,2.625,2.535c0.782,1.025,1.403,2.217,1.854,3.572c0.451,1.359,0.682,2.885,0.682,4.572
			c0,3.742-0.649,6.939-1.949,9.596c-1.298,2.654-3.002,4.842-5.113,6.562c-2.111,1.719-4.478,2.986-7.104,3.801
			c-2.625,0.814-5.295,1.221-8.01,1.221h-21.181l11.134-64.08h18.645c1.871,0,3.757,0.258,5.655,0.768
			c1.9,0.514,3.622,1.346,5.161,2.49c1.537,1.146,2.805,2.656,3.801,4.525C652.105,466.481,652.604,468.774,652.604,471.489z
			 M636.765,499.729c0-2.412-0.71-4.119-2.127-5.113c-1.418-0.996-2.972-1.494-4.662-1.494h-5.521l-2.806,16.111h5.611
			c2.774,0,5.054-0.799,6.834-2.398C635.874,505.235,636.765,502.866,636.765,499.729z M639.842,474.295
			c0-1.932-0.603-3.395-1.809-4.391c-1.209-0.996-2.687-1.494-4.437-1.494h-4.798l-2.534,14.482h5.159
			c0.964,0,1.96-0.166,2.986-0.498c1.025-0.33,1.931-0.844,2.716-1.539c0.783-0.691,1.432-1.582,1.945-2.67
			C639.585,477.102,639.842,475.805,639.842,474.295z"/>
		<path fill="#FFFFFF" d="M700.121,490.678c0,4.104-0.513,8.055-1.538,11.855c-1.027,3.803-2.504,7.166-4.437,10.094
			c-1.931,2.926-4.345,5.279-7.239,7.061c-2.896,1.777-6.188,2.67-9.867,2.67c-5.248,0-9.323-1.676-12.219-5.023
			c-2.896-3.35-4.346-7.799-4.346-13.352c0-4.041,0.527-7.965,1.585-11.766c1.055-3.803,2.578-7.182,4.57-10.141
			c1.991-2.953,4.436-5.307,7.332-7.059c2.896-1.75,6.153-2.623,9.774-2.623c5.188,0,9.217,1.674,12.083,5.023
			C698.688,480.768,700.121,485.188,700.121,490.678z M687.359,491.764c0-2.412-0.379-4.359-1.133-5.84
			c-0.756-1.479-1.978-2.217-3.664-2.217c-1.511,0-2.839,0.666-3.983,1.99c-1.147,1.33-2.097,2.975-2.851,4.934
			c-0.756,1.963-1.329,4.074-1.721,6.338c-0.393,2.262-0.589,4.299-0.589,6.107c0,2.355,0.349,4.256,1.042,5.703
			c0.692,1.447,1.885,2.172,3.575,2.172c1.507,0,2.851-0.646,4.026-1.945c1.177-1.297,2.157-2.91,2.942-4.842
			c0.781-1.932,1.371-4.014,1.765-6.246C687.162,495.686,687.359,493.633,687.359,491.764z"/>
		<path fill="#FFFFFF" d="M746.552,509.415c-0.119,0.783-0.27,1.721-0.45,2.805c-0.183,1.088-0.363,2.203-0.545,3.35
			s-0.348,2.203-0.498,3.168c-0.149,0.969-0.256,1.691-0.315,2.172h-12.4c0.121-0.844,0.257-1.898,0.408-3.166
			c0.15-1.268,0.316-2.504,0.498-3.713h-0.271c-1.209,2.414-2.853,4.406-4.934,5.977c-2.083,1.566-4.571,2.354-7.468,2.354
			c-1.933,0-3.562-0.332-4.888-0.996c-1.328-0.664-2.398-1.539-3.214-2.625c-0.814-1.086-1.419-2.309-1.811-3.666
			c-0.393-1.357-0.588-2.729-0.588-4.117c0-1.146,0.074-2.43,0.227-3.848c0.149-1.418,0.375-2.852,0.679-4.299l4.979-28.965h13.216
			l-5.069,28.873c-0.121,0.604-0.213,1.193-0.271,1.766c-0.061,0.574-0.09,1.104-0.09,1.584c0,1.268,0.256,2.354,0.77,3.26
			c0.513,0.902,1.494,1.355,2.94,1.355c1.811,0,3.363-0.859,4.662-2.578c1.298-1.721,2.186-3.938,2.67-6.652l4.798-27.605h13.213
			L746.552,509.415z"/>
		<path fill="#FFFFFF" d="M787.646,484.432h-7.604l-3.531,19.279c-0.12,0.482-0.211,1.025-0.271,1.629
			c-0.062,0.604-0.091,1.086-0.091,1.447c0,2.656,1.297,3.984,3.893,3.984c0.481,0,1.026-0.061,1.629-0.184
			c0.604-0.119,1.116-0.24,1.538-0.361l-1.719,10.047c-0.846,0.424-1.917,0.771-3.213,1.041c-1.299,0.271-2.521,0.408-3.667,0.408
			c-3.922,0-6.864-0.938-8.825-2.807s-2.94-4.467-2.94-7.783c0-0.545,0.029-1.178,0.091-1.902c0.061-0.723,0.148-1.447,0.271-2.172
			l3.982-22.629h-6.245l1.899-10.588h6.155l1.991-11.494h12.763l-2.083,11.494h7.966L787.646,484.432z"/>
		<path fill="#FFFFFF" d="M805.566,520.909H792.35l8.147-47.064h13.215L805.566,520.909z M816.7,459.542
			c0,1.207-0.214,2.34-0.634,3.395c-0.425,1.057-0.996,1.979-1.723,2.762c-0.723,0.783-1.583,1.4-2.578,1.854
			s-2.066,0.68-3.214,0.68c-2.111,0-3.741-0.68-4.887-2.035c-1.147-1.359-1.722-2.912-1.722-4.662c0-1.146,0.196-2.248,0.59-3.305
			c0.392-1.055,0.95-1.99,1.674-2.807c0.724-0.814,1.568-1.461,2.535-1.945c0.964-0.48,2.02-0.725,3.168-0.725
			c2.172,0,3.847,0.648,5.021,1.945C816.11,455.999,816.7,457.61,816.7,459.542z"/>
		<path fill="#FFFFFF" d="M853.265,542.631h-12.942l4.707-27.152h-0.182c-0.905,1.871-2.188,3.484-3.847,4.84
			c-1.661,1.359-3.847,2.039-6.562,2.039c-4.164,0-7.287-1.555-9.369-4.662c-2.083-3.107-3.123-7.137-3.123-12.084
			c0-3.68,0.438-7.48,1.312-11.402c0.873-3.924,2.156-7.498,3.848-10.727c1.688-3.229,3.785-5.883,6.289-7.965
			s5.354-3.123,8.555-3.123c2.896,0,5.083,0.709,6.562,2.125c1.479,1.42,2.398,3.186,2.761,5.297h0.181l1.088-5.975h12.67
			L853.265,542.631z M849.191,491.764c0-2.412-0.361-4.359-1.086-5.84c-0.725-1.479-1.962-2.217-3.712-2.217
			c-1.509,0-2.837,0.666-3.982,1.99c-1.146,1.33-2.111,2.975-2.896,4.934c-0.784,1.963-1.373,4.074-1.765,6.338
			c-0.394,2.262-0.588,4.33-0.588,6.199c0,2.295,0.361,4.164,1.086,5.611c0.724,1.447,1.96,2.172,3.711,2.172
			c1.508,0,2.836-0.646,3.981-1.945c1.146-1.297,2.11-2.91,2.897-4.842c0.781-1.932,1.371-4.014,1.764-6.246
			C848.996,495.686,849.191,493.633,849.191,491.764z"/>
		<path fill="#FFFFFF" d="M911.01,509.415c-0.12,0.783-0.271,1.721-0.45,2.805c-0.184,1.088-0.362,2.203-0.545,3.35
			c-0.181,1.146-0.348,2.203-0.498,3.168c-0.15,0.969-0.257,1.691-0.315,2.172h-12.4c0.12-0.844,0.257-1.898,0.408-3.166
			c0.15-1.268,0.317-2.504,0.498-3.713h-0.271c-1.207,2.414-2.853,4.406-4.933,5.977c-2.083,1.566-4.57,2.354-7.469,2.354
			c-1.931,0-3.562-0.332-4.887-0.996c-1.329-0.664-2.398-1.539-3.214-2.625c-0.814-1.086-1.419-2.309-1.811-3.666
			c-0.393-1.357-0.588-2.729-0.588-4.117c0-1.146,0.074-2.43,0.226-3.848c0.149-1.418,0.376-2.852,0.68-4.299l4.979-28.965h13.216
			l-5.069,28.873c-0.121,0.604-0.212,1.193-0.271,1.766c-0.062,0.574-0.091,1.104-0.091,1.584c0,1.268,0.256,2.354,0.77,3.26
			c0.514,0.902,1.493,1.355,2.94,1.355c1.811,0,3.363-0.859,4.662-2.578c1.298-1.721,2.186-3.938,2.67-6.652l4.798-27.605h13.213
			L911.01,509.415z"/>
		<path fill="#FFFFFF" d="M963.507,488.958c0,1.209-0.091,2.775-0.271,4.705c-0.183,1.934-0.543,4.227-1.085,6.883h-23.534
			c-0.183,1.205-0.271,2.201-0.271,2.984c0,2.113,0.451,3.848,1.357,5.203c0.904,1.357,2.263,2.039,4.072,2.039
			c1.63,0,3.001-0.529,4.119-1.586c1.114-1.055,2.064-2.246,2.852-3.574l9.052,5.883c-1.63,3.02-3.925,5.582-6.879,7.693
			c-2.959,2.111-6.488,3.168-10.59,3.168c-5.312,0-9.415-1.643-12.312-4.934c-2.896-3.287-4.346-7.859-4.346-13.713
			c0-4.223,0.574-8.236,1.721-12.035c1.146-3.805,2.73-7.139,4.754-10.002c2.02-2.867,4.418-5.131,7.194-6.791
			c2.773-1.656,5.761-2.486,8.959-2.486c2.716,0,5.038,0.422,6.972,1.266c1.93,0.846,3.498,2.006,4.705,3.484
			c1.207,1.48,2.097,3.229,2.672,5.25C963.22,484.418,963.507,486.604,963.507,488.958z M952.012,488.776
			c0-1.93-0.348-3.451-1.04-4.568c-0.694-1.117-1.766-1.676-3.214-1.676c-1.026,0-1.962,0.305-2.807,0.904
			c-0.846,0.605-1.583,1.375-2.217,2.309c-0.635,0.938-1.178,1.979-1.63,3.123c-0.451,1.146-0.77,2.264-0.949,3.35h11.494
			c0.12-0.361,0.21-0.906,0.271-1.629C951.98,489.864,952.012,489.26,952.012,488.776z"/>
	</g>
</g>
</svg>
