<?xml version="1.0" encoding="utf-8"?>
<!-- Generator: Adobe Illustrator 16.0.0, SVG Export Plug-In . SVG Version: 6.00 Build 0)  -->
<!DOCTYPE svg PUBLIC "-//W3C//DTD SVG 1.1//EN" "http://www.w3.org/Graphics/SVG/1.1/DTD/svg11.dtd">
<svg version="1.1" id="Layer_1" xmlns="http://www.w3.org/2000/svg" xmlns:xlink="http://www.w3.org/1999/xlink" x="0px" y="0px"
	 width="80px" height="80px" viewBox="0 0 80 80" style="enable-background:new 0 0 80 80;" xml:space="preserve">
<title>Facebook icon</title>
<path style="fill:#FFFFFF;" d="M75.587,0H4.413C1.977,0,0,1.977,0,4.413v71.174C0,78.027,1.977,80,4.413,80h38.313V49.02h-10.43
	V36.95h10.43v-8.917c0-10.33,6.313-15.95,15.53-15.95c4.417,0,8.214,0.323,9.319,0.47v10.8h-6.402c-5,0-5.974,2.403-5.974,5.903
	v7.703h11.946l-1.55,12.101H55.2V80h20.384C78.027,80,80,78.027,80,75.587V4.413C80,1.977,78.027,0,75.587,0"/>
</svg>
