<?xml version="1.0" encoding="utf-8"?>
<!-- Generator: Adobe Illustrator 16.0.0, SVG Export Plug-In . SVG Version: 6.00 Build 0)  -->
<!DOCTYPE svg PUBLIC "-//W3C//DTD SVG 1.1//EN" "http://www.w3.org/Graphics/SVG/1.1/DTD/svg11.dtd">
<svg version="1.1" id="Layer_1" xmlns="http://www.w3.org/2000/svg" xmlns:xlink="http://www.w3.org/1999/xlink" x="0px" y="0px"
	 width="80px" height="80px" viewBox="0 0 80 80" style="enable-background:new 0 0 80 80;" xml:space="preserve">
<title>Instagram icon</title>
<path style="fill:#FFFFFF;" d="M40,53.334c-7.367,0-13.333-5.967-13.333-13.334S32.634,26.667,40,26.667
	c7.367,0,13.334,5.967,13.334,13.333C53.334,47.367,47.367,53.334,40,53.334z"/>
<path style="fill:#FFFFFF;" d="M79.76,23.51c-0.199-4.256-0.873-7.163-1.859-9.71c-1.021-2.63-2.394-4.863-4.612-7.086
	C71.062,4.49,68.837,3.117,66.2,2.1c-2.55-0.99-5.454-1.664-9.71-1.86C52.223,0.04,50.867,0,40,0S27.777,0.05,23.51,0.24
	c-4.26,0.2-7.16,0.87-9.71,1.86c-2.63,1.02-4.863,2.39-7.086,4.613C4.491,8.936,3.117,11.167,2.1,13.8
	c-0.99,2.55-1.664,5.45-1.86,9.71C0.04,27.777,0,29.133,0,40s0.05,12.223,0.24,16.49c0.2,4.256,0.87,7.16,1.86,9.71
	c1.02,2.626,2.39,4.862,4.613,7.087c2.223,2.22,4.453,3.596,7.086,4.613c2.554,0.985,5.454,1.662,9.71,1.858
	C27.777,79.96,29.133,80,40,80s12.223-0.05,16.49-0.24c4.256-0.199,7.16-0.873,9.71-1.859c2.626-1.021,4.862-2.394,7.087-4.612
	c2.22-2.224,3.596-4.45,4.613-7.087c0.985-2.551,1.662-5.454,1.858-9.71C79.96,52.223,80,50.867,80,40S79.95,27.777,79.76,23.51z
	 M40,60.54c-11.34,0-20.54-9.19-20.54-20.54c0-11.34,9.19-20.54,20.54-20.54c11.34,0,20.54,9.19,20.54,20.54
	C60.54,51.34,51.35,60.54,40,60.54z M61.354,23.45c-2.649,0-4.801-2.153-4.801-4.8c0-2.646,2.154-4.796,4.801-4.796
	c2.644-0.003,4.801,2.15,4.801,4.796C66.152,21.3,64,23.45,61.354,23.45z"/>
</svg>
